<svg width="20" height="20" viewBox="0 0 20 20" fill="none" xmlns="http://www.w3.org/2000/svg">
<path fill-rule="evenodd" clip-rule="evenodd" d="M3.15364 11.6089L3.15386 11.61C3.77346 14.8113 6.42231 17.3677 9.64724 17.8853L9.65044 17.8858C12.0414 18.2736 14.2627 17.6103 15.9424 16.2833C10.3551 14.2878 6.97504 8.3524 8.2629 2.48816C4.6987 3.77194 2.35841 7.51245 3.15364 11.6089ZM9.00854 0.210544C3.76646 1.2533 0.0991918 6.36947 1.1903 11.9901C1.9703 16.0201 5.2803 19.2101 9.33034 19.8601C12.8514 20.4311 16.0957 19.1608 18.2664 16.8587C18.2767 16.8478 18.2868 16.837 18.297 16.8261C18.4387 16.6745 18.5759 16.5184 18.7081 16.3581C18.7107 16.355 18.7132 16.3519 18.7158 16.3487C18.8855 16.1426 19.0471 15.9295 19.2003 15.7101C19.4103 15.4001 19.2403 14.9601 18.8703 14.9201C18.5116 14.8796 18.1604 14.8209 17.8172 14.7452C17.7966 14.7406 17.776 14.736 17.7554 14.7313C17.6678 14.7114 17.5806 14.6903 17.494 14.6681C17.4921 14.6676 17.4903 14.6672 17.4884 14.6667C12.0236 13.2647 8.7254 7.48006 10.4544 2.03417C10.4551 2.03214 10.4557 2.03012 10.4564 2.0281C10.4877 1.92954 10.5207 1.83109 10.5554 1.73278C10.5567 1.72911 10.558 1.72543 10.5593 1.72175C10.677 1.38921 10.8138 1.05829 10.9703 0.730054C11.1303 0.390054 10.8503 0.0100539 10.4703 0.0300539C10.1956 0.0437939 9.92424 0.0684838 9.65634 0.103684C9.65194 0.104274 9.64744 0.104864 9.64304 0.105454C9.44154 0.132214 9.24204 0.164924 9.04484 0.203404C9.03274 0.205764 9.02064 0.208144 9.00854 0.210544Z" fill="#E4E0D8"/>
</svg>
