<svg width="464" height="328" viewBox="0 0 464 328" fill="none" xmlns="http://www.w3.org/2000/svg">
<path d="M24.0001 -2.32198e-06C17.6349 -2.32198e-06 11.5304 1.53913 7.02954 4.27879C2.52867 7.01845 0.000103788 10.7342 0.000103788 14.6087C-0.0350077 42.1124 8.83885 69.3504 26.114 94.7645C43.3892 120.179 68.7267 143.27 100.677 162.718C132.627 182.166 170.564 197.589 212.315 208.105C254.067 218.62 298.815 224.021 344 224H440C446.365 224 452.47 222.461 456.971 219.721C461.471 216.981 464 213.266 464 209.391C464 205.517 461.471 201.801 456.971 199.061C452.47 196.322 446.365 194.783 440 194.783H344C305.129 194.783 266.638 190.122 230.726 181.068C194.813 172.013 162.183 158.742 134.696 142.011C79.1857 108.222 48.0001 62.3938 48.0001 14.6087C48.0001 10.7342 45.4715 7.01845 40.9707 4.27879C36.4698 1.53913 30.3653 -2.32198e-06 24.0001 -2.32198e-06Z" fill="#FFC25F"/>
<path d="M312.02 88C306.981 87.9958 302.069 89.5777 297.979 92.5214C293.89 95.4652 290.83 99.6214 289.235 104.401C287.639 109.181 287.589 114.341 289.09 119.151C290.592 123.961 293.569 128.177 297.6 131.2L400 208L297.6 284.8C295.079 286.691 292.955 289.06 291.349 291.772C289.743 294.484 288.687 297.486 288.241 300.606C287.796 303.726 287.969 306.903 288.751 309.956C289.533 313.009 290.909 315.879 292.8 318.4C296.619 323.492 302.305 326.859 308.606 327.759C311.726 328.205 314.903 328.031 317.956 327.249C321.01 326.467 323.879 325.091 326.4 323.2L454.4 227.2C457.381 224.964 459.8 222.066 461.466 218.733C463.133 215.401 464 211.726 464 208C464 204.274 463.133 200.599 461.466 197.267C459.8 193.934 457.381 191.036 454.4 188.8L326.4 92.8C322.255 89.6814 317.207 87.9966 312.02 88V88Z" fill="#FFA91B"/>
</svg>
